<?xml version="1.0" encoding="utf-8" ?>
<svg baseProfile="full" height="200mm" version="1.1" viewBox="0,0,200,200" width="200mm" xmlns="http://www.w3.org/2000/svg" xmlns:ev="http://www.w3.org/2001/xml-events" xmlns:xlink="http://www.w3.org/1999/xlink"><defs /><rect fill="#1a1a1a" height="200" width="200" x="0" y="0" /><text alignment-baseline="middle" fill="#e1ed5e" style="dominant-baseline: central; font-size:9.0px; font-family:Arial;" text-anchor="middle" x="100.0" y="100.0">2024</text><line stroke="#e1ed5e" stroke-width="0.3" x1="100.0" x2="100.0" y1="15.0" y2="10.0" /><path d="M 100.0 14.0 a86.0,86.0 0 0,1 42.35913384403234,11.155469271406648" fill="none" id="id61" stroke="none" /><text fill="#e1ed5e" style="font-size:6.75px; font-family:Arial;" text-anchor="middle"><textPath startOffset="22.145653131862478" xlink:href="#id61">January</textPath></text><path d="M 100.0 79.0 l 0.0 -1.3399685600106075 a22.339968560010607,22.339968560010607 0 0,0 0.3834952670109373,0.003291845636944262 l -0.02300234216208248 1.3397711125680982" fill="#ff0100" stroke="none" /><path d="M 104.29559338865022 79.4440306129975 l 0.9779982220300428 -4.680075531755471 a25.78117009791852,25.78117009791852 0 0,0 0.4324331929534219,0.0942468017154179 l -1.058193831602599 4.662597271906335" fill="#ff3304" stroke="none" /><path d="M 104.64783097203109 79.52079915486377 l 1.454851464511785 -6.410343990749193 a27.5733631318775,27.5733631318775 0 0,0 0.4606955493442818,0.10872289523630436 l -1.5646791675959517 6.384424951866661" fill="#ff4c07" stroke="none" /><line stroke="#e1ed5e" stroke-width="0.3" x1="143.13028292997686" x2="145.6673583964461" y1="26.7553504044142" y2="22.446841604673864" /><path d="M 143.63769802327073 25.89364864446614 a86.0,86.0 0 0,1 29.32050498858742,28.57503671076993" fill="none" id="id62" stroke="none" /><text fill="#e1ed5e" style="font-size:6.75px; font-family:Arial;" text-anchor="middle"><textPath startOffset="20.669276256404974" xlink:href="#id62">February</textPath></text><path d="M 115.8921839302757 86.27271002978787 l 1.3616970037418765 -1.1762014398992342 a22.79935226045948,22.79935226045948 0 0,0 0.25329584908960034,0.298381873324198 l -1.381687416338589 1.152652784125484" fill="#ff0801" stroke="none" /><path d="M 116.35404254752997 86.82634096563983 l 1.8649536956888955 -1.5022746841016426 a23.394761264417888,23.394761264417888 0 0,0 0.24924730676080004,0.3149158298251601 l -1.890467433091255 1.4700389103618043" fill="#ff1101" stroke="none" /><path d="M 116.7966241395341 87.39550010848427 l 9.561850257807473 -7.175390693749663 a32.95471505142143,32.95471505142143 0 0,0 0.335664142604264,0.45539287560783526 l -9.683616419995563 7.0101915088729525" fill="#ff960d" stroke="none" /><path d="M 117.01052211995028 87.68569379921539 l 6.497949215653273 -4.704014124578586 a29.021913293812382,29.021913293812382 0 0,0 0.2886780713738107,0.40606185953258417 l -6.577742385557045 4.591775038336497" fill="#ff6008" stroke="none" /><path d="M 117.62189284568427 88.57770195909679 l 3.7497294668698777 -2.4305293374788843 a25.468550540729936,25.468550540729936 0 0,0 0.2346530452172913,0.36891356191643626 l -3.790900203713059 2.365802100883776" fill="#ff2e04" stroke="none" /><line stroke="#e1ed5e" stroke-width="0.3" x1="172.87174338648825" x2="177.1583165268699" y1="56.24261187166439" y2="53.66864786411523" /><path d="M 173.72905801456457 55.72781907015455 a86.0,86.0 0 0,1 12.242430191666344,42.057860355516425" fill="none" id="id63" stroke="none" /><text fill="#e1ed5e" style="font-size:6.75px; font-family:Arial;" text-anchor="middle"><textPath startOffset="22.145653131862474" xlink:href="#id63">March</textPath></text><path d="M 118.00360718960297 89.18935116829356 l 8.073134033240025 -4.847685026979334 a30.416769256993504,30.416769256993504 0 0,0 0.2649536547628935,0.44994923018902383 l -8.155161398132687 4.708384628496753" fill="#ff730a" stroke="none" /><path d="M 118.18653347947321 89.5 l 6.595843284881011 -3.808111896058638 a28.616223792117275,28.616223792117275 0 0,0 0.24196602688388114,0.42753078476692086 l -6.660242676786268 3.6943243411925994" fill="#ff5b08" stroke="none" /><path d="M 119.31412917781788 91.75594674310238 l 2.933388925489527 -1.252089302203866 a24.189435405973597,24.189435405973597 0 0,0 0.15973569171727048,0.3833075103846733 l -2.9544504617432805 1.2015492823779148" fill="#ff1c02" stroke="none" /><path d="M 119.4528033332814 92.08871423366111 l 5.538627483649678 -2.2525115802453177 a26.97914733233584,26.97914733233584 0 0,0 0.1707925521259465,0.4305088013100521 l -5.576478710741748 2.1571017617217003" fill="#ff4406" stroke="none" /><path d="M 120.35273937422433 94.82641323984039 l 5.794858444529525 -1.4730303559817317 a26.97914733233584,26.97914733233584 0 0,0 0.11024511262234012,0.449837680736069 l -5.819291083668156 1.3733368506375678" fill="#ff4406" stroke="none" /><path d="M 120.43855184770803 95.1765574152323 l 1.6850511599286566 -0.3976674855867316 a22.73133960870471,22.73133960870471 0 0,0 0.08636733347707816,0.3805504071424984 l -1.6916293549634012 0.36868274450520694" fill="#ff0701" stroke="none" /><path d="M 120.51834098615036 95.52812308129327 l 9.614656988548008 -2.0954697408231837 a30.840356824939867,30.840356824939867 0 0,0 0.10829707196497278,0.5182406933337703 l -9.649211771337347 1.9301125962040089" fill="#ff790b" stroke="none" /><path d="M 120.65975698304385 96.23510406497455 l 7.603169339145154 -1.3855507284887887 a28.728385007291806,28.728385007291806 0 0,0 0.08424965875368691,0.4859296432156971 l -7.625833815391075 1.2548280523524988" fill="#ff5c08" stroke="none" /><path d="M 120.9064616781168 98.02013634271609 l 3.0255549097992462 -0.28652319561556827 a24.039091649463057,24.039091649463057 0 0,0 0.03537910650104256,0.4111588457473624 l -3.0300276389980296 0.23454330249254385" fill="#ff1a02" stroke="none" /><path d="M 120.96210409425399 98.7389718711861 l 11.974828759841834 -0.7203759620690768 a32.99647720600769,32.99647720600769 0 0,0 0.02916010335599679,0.5656982149221207 l -11.985430452654404 0.5147059537702255" fill="#ff960d" stroke="none" /><line stroke="#e1ed5e" stroke-width="0.3" x1="184.99686870605535" x2="189.99668451229388" y1="99.2704041080226" y2="99.22748670261217" /><path d="M 185.99683186730306 99.26182062694052 a86.0,86.0 0 0,1 -10.086455211305974,41.156179273409016" fill="none" id="id64" stroke="none" /><text fill="#e1ed5e" style="font-size:6.75px; font-family:Arial;" text-anchor="middle"><textPath startOffset="21.40746469413373" xlink:href="#id64">April</textPath></text><path d="M 120.99922638620191 100.18025310272382 l 6.046937214261896 0.05190568332379486 a27.04715998409061,27.04715998409061 0 0,0 -0.007970628553490702,0.4642491538353996 l -6.045155154109737 -0.1557017531282655" fill="#ff4506" stroke="none" /><path d="M 120.96210409425399 101.26102812881392 l 5.971930714327328 0.35925652216176224 a26.98272694558609,26.98272694558609 0 0,0 -0.03178313245706835,0.4621197704870392 l -5.964883620705193 -0.46171971680314494" fill="#ff4406" stroke="none" /><path d="M 120.9064616781168 101.97986365728391 l 6.781661947406324 0.6422304372867208 a27.81200401522756,27.81200401522756 0 0,0 -0.049091640434989654,0.4749170888623599 l -6.7696379144896675 -0.7585520484320121" fill="#ff5007" stroke="none" /><path d="M 120.86939407059847 102.33845913500097 l 1.772746309714846 0.1986399215985038 a22.783840603041725,22.783840603041725 0 0,0 -0.046889050374087145,0.3883086007522768 l -1.769075173081095 -0.2290421992741892" fill="#ff0801" stroke="none" /><path d="M 120.51834098615036 104.47187691870673 l 1.2427821449972312 0.270858584178187 a22.271955908255837,22.271955908255837 0 0,0 -0.08462191301644889,0.3728597625412767 l -1.2379493704231181 -0.2921526806584806" fill="#ff0000" stroke="none" /><path d="M 120.43855184770803 104.8234425847677 l 4.66379425104995 1.1006427443944267 a25.791908937669273,25.791908937669273 0 0,0 -0.10539369056227886,0.4300422231791997 l -4.644213033971376 -1.1805407921817261" fill="#ff3304" stroke="none" /><path d="M 120.35273937422433 105.17358676015961 l 20.369314835749954 5.1778001776615845 a42.017102596640086,42.017102596640086 0 0,0 -0.18369580973706867,0.6975229102360403 l -20.277429545208154 -5.526703592270429" fill="#f6ff19" stroke="none" /><path d="M 119.31412917781788 108.2440532568976 l 5.501338826591471 2.348194415244287 a26.98153374116934,26.98153374116934 0 0,0 -0.18548663254480355,0.42442971477767094 l -5.460218312029702 -2.4422861997978025" fill="#ff4406" stroke="none" /><path d="M 119.16976305983485 108.57439118712176 l 2.6500520951861697 1.1853345948749363 a23.903066345953523,23.903066345953523 0 0,0 -0.1707538709282532,0.3731280241455639 l -2.6293137594028604 -1.2306516012351891" fill="#ff1802" stroke="none" /><path d="M 118.5362547648365 109.86951160357373 l 6.773233644159748 3.606365411612868 a28.67349760412129,28.67349760412129 0 0,0 -0.23506075977823415,0.43248532254680766 l -6.710327534766175 -3.722105567634279" fill="#ff5b08" stroke="none" /><line stroke="#e1ed5e" stroke-width="0.3" x1="174.33088141563837" x2="178.70328620479359" y1="141.23008692659167" y2="143.65538615756765" /><path d="M 175.20536237346943 141.71514677278685 a86.0,86.0 0 0,1 -30.301960400862466,31.631185727798858" fill="none" id="id65" stroke="none" /><text fill="#e1ed5e" style="font-size:6.75px; font-family:Arial;" text-anchor="middle"><textPath startOffset="22.145653131862474" xlink:href="#id65">May</textPath></text><path d="M 117.81537515405839 111.11811171558189 l 53.44612546217515 33.35433514674567 a84.0,84.0 0 0,0 -0.7739292334964403,1.2167453012853122 l -52.865678537052815 -34.26689412270965" fill="#4dd2ff" stroke="none" /><path d="M 117.01052211995028 112.31430620078461 l 6.8449317782621595 4.955202741375213 a29.45027367942575,29.45027367942575 0 0,0 -0.2999692410825101,0.4069658862892475 l -6.758860517595821 -5.071974936933337" fill="#ff6609" stroke="none" /><path d="M 116.79662413953412 112.60449989151573 l 5.2643144048374095 3.9504396712968477 a27.58171556279475,27.58171556279475 0 0,0 -0.28743828152826856,0.37626593741330105 l -5.195724145954836 -4.040226521951026" fill="#ff4c07" stroke="none" /><path d="M 116.1254893667686 113.45245675266167 l 1.8398065862121273 1.5348320892068787 a23.39595446883464,23.39595446883464 0 0,0 -0.25992396997710193,0.30618978306349987 l -1.813188052727911 -1.5661886547199353" fill="#ff1101" stroke="none" /><path d="M 115.6541949942343 113.99807769240083 l 9.42916273796158 8.431615463388008 a33.64916002197011,33.64916002197011 0 0,0 -0.3887315993366405,0.4272841234241151 l -9.28303343778306 -8.592237162369795" fill="#ff9f0e" stroke="none" /><path d="M 114.91283532996324 114.78537596483092 l 5.089101440846946 5.045605108701369 a28.166385727002407,28.166385727002407 0 0,0 -0.34337249175469764,0.34043770176777705 l -5.001737028962283 -5.132222820697808" fill="#ff5407" stroke="none" /><path d="M 114.39649973595853 115.28858382429668 l 4.1284380859892815 4.384258180716984 a27.02210269133885,27.02210269133885 0 0,0 -0.34044018517261815,0.3151063529189214 l -4.052568129502696 -4.454482279768285" fill="#ff4406" stroke="none" /><path d="M 113.86319453409587 115.77377054828091 l 7.891142796790041 8.978671945643566 a32.95352184700468,32.95352184700468 0 0,0 -0.42811414161647243,0.3697947990094651 l -7.7358491754107135 -9.112810877117749" fill="#ff960d" stroke="none" /><path d="M 113.31354834802062 116.24036423190432 l 5.275593449445775 6.435366208827863 a29.321407602416713,29.321407602416713 0 0,0 -0.39199821887991115,0.31576601703169555 l -5.164344460210611 -6.524980519652962" fill="#ff6409" stroke="none" /><path d="M 113.03279911837588 116.46651593811092 l 8.235255913679698 10.404976822348809 a34.26962631868028,34.26962631868028 0 0,0 -0.4644188024458656,0.36113486979392073 l -8.055427166598601 -10.544812743763524" fill="#ffa70f" stroke="none" /><line stroke="#e1ed5e" stroke-width="0.3" x1="143.1302829299769" x2="145.66735839644613" y1="173.24464959558577" y2="177.55315839532614" /><path d="M 143.63769802327073 174.10635135553383 a86.0,86.0 0 0,1 -40.68552437913181,11.842963189579606" fill="none" id="id66" stroke="none" /><text fill="#e1ed5e" style="font-size:6.75px; font-family:Arial;" text-anchor="middle"><textPath startOffset="21.407464694133747" xlink:href="#id66">June</textPath></text><path d="M 110.02825361518725 118.45085714620011 l 1.7242085327121703 3.1723494985360436 a24.61063656508646,24.61063656508646 0 0,0 -0.37292284788680496,0.19856041153678344 l -1.6694968690388117 -3.2014803777953955" fill="#ff2203" stroke="none" /><path d="M 108.07796709384702 119.3841803445677 l 1.4191788246467734 3.405512545241575 a24.68938805659198,24.68938805659198 0 0,0 -0.39261480940175725,0.15967302501639222 l -1.3605095540545753 -3.4293728268372585" fill="#ff2303" stroke="none" /><path d="M 107.407793817531 119.65005319985036 l 0.6730276509535442 1.785285804649372 a22.907933862383757,22.907933862383757 0 0,0 -0.3691568253438304,0.13555949962108477 l -0.6422816739555869 -1.7965761532791786" fill="#ff0a01" stroke="none" /><path d="M 107.06938296918513 119.77432235084164 l 2.4671007138431613 6.900919783264988 a28.32866152768045,28.32866152768045 0 0,0 -0.4593212255174023,0.15977576545582578 l -2.3482737162807372 -6.942253981289404" fill="#ff5708" stroke="none" /><path d="M 106.38641147887787 120.00534299687104 l 0.5453953551821128 1.7084431821226074 a22.793386238375728,22.793386238375728 0 0,0 -0.37376743141712826,0.11579410568338085 l -0.5159872908933602 -1.7175538756126325" fill="#ff0801" stroke="none" /><path d="M 104.9986988182912 120.39639698878246 l 2.321030705680545 9.470597332847037 a30.750866493683592,30.750866493683592 0 0,0 -0.5137852522510131,0.12125192056652782 l -2.158113299689653 -9.50904539705979" fill="#ff780b" stroke="none" /><path d="M 104.64783097203109 120.47920084513623 l 1.6523880220457852 7.280726511184912 a28.465880035606734,28.465880035606734 0 0,0 -0.4774644186929382,0.10406114777495308 l -1.527161186733711 -7.3080191170935835" fill="#ff5908" stroke="none" /><path d="M 104.29559338865022 120.5559693870025 l 1.2845531925490687 6.147052039837548 a27.27983484535692,27.27983484535692 0 0,0 -0.4592151186651756,0.0918558848025087 l -1.1788415883529344 -6.168197321302918" fill="#ff4806" stroke="none" /><path d="M 103.94208987418118 120.62667999033965 l 0.23630588556191254 1.2364522466225685 a22.258830659671585,22.258830659671585 0 0,0 -0.37592543365496767,0.06850613674700594 l -0.2150457183558877 -1.240326557300938" fill="#ff0000" stroke="none" /><path d="M 101.80034050326958 120.92268563240118 l 0.15763507162285786 1.8319584779747857 a22.83872800621224,22.83872800621224 0 0,0 -0.3909022364441828,0.030258305339306225 l -0.12616384040343923 -1.8343945503091454" fill="#ff0801" stroke="none" /><path d="M 100.72087961077811 120.9876233191556 l 0.05836777848210055 1.6993141856737877 a22.700316293869204,22.700316293869204 0 0,0 -0.38956627422349605,0.010033845337289075 l -0.02918819018786067 -1.700065748361122" fill="#ff0601" stroke="none" /><line stroke="#e1ed5e" stroke-width="0.3" x1="101.45913802915013" x2="101.54496967792366" y1="184.9874750549273" y2="189.98673829345242" /><path d="M 101.47630435890484 185.9873277026323 a86.0,86.0 0 0,1 -42.54439059252881,-10.42667462771756" fill="none" id="id67" stroke="none" /><text fill="#e1ed5e" style="font-size:6.75px; font-family:Arial;" text-anchor="middle"><textPath startOffset="22.145653131862474" xlink:href="#id67">July</textPath></text><line stroke="#e1ed5e" stroke-width="0.3" x1="58.13341422392154" x2="55.67067388415222" y1="173.97424548756322" y2="178.32567169271397" /><path d="M 57.64086615596768 174.84453072859336 a86.0,86.0 0 0,1 -31.369924170532247,-30.572349798747897" fill="none" id="id68" stroke="none" /><text fill="#e1ed5e" style="font-size:6.75px; font-family:Arial;" text-anchor="middle"><textPath startOffset="22.145653131862474" xlink:href="#id68">August</textPath></text><line stroke="#e1ed5e" stroke-width="0.3" x1="26.387840678322732" x2="22.057713659400548" y1="142.50000000000003" y2="145.00000000000006" /><path d="M 25.521815274538298 143.00000000000003 a86.0,86.0 0 0,1 -11.493303480769221,-40.785679425670985" fill="none" id="id69" stroke="none" /><text fill="#e1ed5e" style="font-size:6.75px; font-family:Arial;" text-anchor="middle"><textPath startOffset="21.40746469413373" xlink:href="#id69">September</textPath></text><line stroke="#e1ed5e" stroke-width="0.3" x1="15.003131293944662" x2="10.003315487706104" y1="100.72959589197737" y2="100.7725132973878" /><path d="M 14.003168132696942 100.73817937305945 a86.0,86.0 0 0,1 10.791469493833604,-42.45332614584628" fill="none" id="id70" stroke="none" /><text fill="#e1ed5e" style="font-size:6.75px; font-family:Arial;" text-anchor="middle"><textPath startOffset="22.145653131862435" xlink:href="#id70">October</textPath></text><line stroke="#e1ed5e" stroke-width="0.3" x1="26.387840678322718" x2="22.05771365940052" y1="57.49999999999999" y2="54.99999999999999" /><path d="M 25.521815274538284 56.99999999999999 a86.0,86.0 0 0,1 29.574782752854787,-30.34633250058573" fill="none" id="id71" stroke="none" /><text fill="#e1ed5e" style="font-size:6.75px; font-family:Arial;" text-anchor="middle"><textPath startOffset="21.40746469413373" xlink:href="#id71">November</textPath></text><line stroke="#e1ed5e" stroke-width="0.3" x1="56.869717070023135" x2="54.33264160355391" y1="26.7553504044142" y2="22.446841604673864" /><path d="M 56.362301976729285 25.89364864446614 a86.0,86.0 0 0,1 42.16139366436587,-11.88097634709845" fill="none" id="id72" stroke="none" /><text fill="#e1ed5e" style="font-size:6.75px; font-family:Arial;" text-anchor="middle"><textPath startOffset="22.145653131862474" xlink:href="#id72">December</textPath></text></svg>