<?xml version="1.0" encoding="utf-8" ?>
<svg baseProfile="full" height="200mm" version="1.1" viewBox="0,0,200,200" width="200mm" xmlns="http://www.w3.org/2000/svg" xmlns:ev="http://www.w3.org/2001/xml-events" xmlns:xlink="http://www.w3.org/1999/xlink"><defs /><rect fill="#1a1a1a" height="200" width="200" x="0" y="0" /><text alignment-baseline="middle" fill="#e1ed5e" style="dominant-baseline: central; font-size:9.0px; font-family:Arial;" text-anchor="middle" x="100.0" y="100.0">2025</text><line stroke="#e1ed5e" stroke-width="0.3" x1="100.0" x2="100.0" y1="15.0" y2="10.0" /><path d="M 100.0 14.0 a86.0,86.0 0 0,1 42.46469731375804,11.215312516191453" fill="none" id="id73" stroke="none" /><text fill="#e1ed5e" style="font-size:6.75px; font-family:Arial;" text-anchor="middle"><textPath startOffset="22.20632615414155" xlink:href="#id73">January</textPath></text><line stroke="#e1ed5e" stroke-width="0.3" x1="143.23703022742887" x2="145.7803849466894" y1="26.81831364943548" y2="22.513508569990506" /><path d="M 143.74570117128098 25.957352633546492 a86.0,86.0 0 0,1 28.547481713284135,27.462654790039103" fill="none" id="id74" stroke="none" /><text fill="#e1ed5e" style="font-size:6.75px; font-family:Arial;" text-anchor="middle"><textPath startOffset="19.985693538727396" xlink:href="#id74">February</textPath></text><line stroke="#e1ed5e" stroke-width="0.3" x1="172.23445277983987" x2="176.4835382374775" y1="55.19839476539836" y2="52.563006222186495" /><path d="M 173.08426987136738 54.67131705675599 a86.0,86.0 0 0,1 12.851231095245387,41.99856678651699" fill="none" id="id75" stroke="none" /><text fill="#e1ed5e" style="font-size:6.75px; font-family:Arial;" text-anchor="middle"><textPath startOffset="22.20632615414155" xlink:href="#id75">March</textPath></text><line stroke="#e1ed5e" stroke-width="0.3" x1="184.98032266829074" x2="189.97916517819016" y1="98.17113171792111" y2="98.06355123074" /><path d="M 185.9800911702706 98.14961562048488 a86.0,86.0 0 0,1 -9.607161424134198,41.387399972396054" fill="none" id="id76" stroke="none" /><text fill="#e1ed5e" style="font-size:6.75px; font-family:Arial;" text-anchor="middle"><textPath startOffset="21.466115282336823" xlink:href="#id76">April</textPath></text><path d="M 120.8583938346157 102.4346265915055 l 22.788798071713547 2.659946600575129 a43.94350961538461,43.94350961538461 0 0,0 -0.09416150528994881,0.7505598434923623 l -22.73963505717675 -3.051824198354886" fill="#ff8b0c" stroke="none" /><path d="M 120.81339534386255 102.79330883721812 l 24.7959584913901 3.3277977397242724 a46.018269230769235,46.018269230769235 0 0,0 -0.11212230551265918,0.7841831436121608 l -24.73500213486084 -3.754126355316843" fill="#ffaf10" stroke="none" /><path d="M 119.41010516605496 108.01547362559984 l 21.318454448006033 8.803533412347509 a44.06466346153846,44.06466346153846 0 0,0 -0.29554593393565753,0.6985832849663602 l -21.16375753287807 -9.169191222980034" fill="#ff8d0d" stroke="none" /><path d="M 119.26925614724726 108.34839909993367 l 26.541547529742036 11.499117029475949 a49.925480769230774,49.925480769230774 0 0,0 -0.3484297288480075,0.7856170557902209 l -26.339676716162757 -11.954282421758856" fill="#ffef16" stroke="none" /><line stroke="#e1ed5e" stroke-width="0.3" x1="174.80103733775053" x2="179.2010983576182" y1="140.37084112569926" y2="142.7455964860345" /><path d="M 175.68104954172406 140.8457921977663 a86.0,86.0 0 0,1 -30.038265399797805,32.042727171017184" fill="none" id="id77" stroke="none" /><text fill="#e1ed5e" style="font-size:6.75px; font-family:Arial;" text-anchor="middle"><textPath startOffset="22.206326154141568" xlink:href="#id77">May</textPath></text><path d="M 118.48025628344425 109.97397251340804 l 40.19455741649124 21.693390216662504 a66.675,66.675 0 0,0 -0.5537948999914571,1.005298604086969 l -39.81518610704828 -22.38205933914728" fill="#31ff40" stroke="none" /><path d="M 118.12598468904814 110.60418214915192 l 13.241554680292616 7.746660949825169 a36.341105769230765,36.341105769230765 0 0,0 -0.32052703746357264,0.5372217514696962 l -13.106246767130816 -7.97344479518097" fill="#ff0100" stroke="none" /><path d="M 115.80600337817218 113.82643327865902 l 23.218866981733214 20.310897539876272 a51.848798076923075,51.848798076923075 0 0,0 -0.5933999892456532,0.6666911785075866 l -22.86580814283922 -20.707562888124723" fill="#f1ff19" stroke="none" /><path d="M 115.32070863581623 114.36230785411682 l 27.897684595266345 26.1525197103209 a59.23918269230769,59.23918269230769 0 0,0 -0.7037994277807336,0.7379308862750671 l -27.44337861610665 -26.628857713178473" fill="#84ff25" stroke="none" /><line stroke="#e1ed5e" stroke-width="0.3" x1="143.8653032363475" x2="146.44561519142675" y1="172.8068346515853" y2="177.08958963109032" /><path d="M 144.38136562736335 173.6633856474863 a86.0,86.0 0 0,1 -40.68145358897372,12.25698825130547" fill="none" id="id78" stroke="none" /><text fill="#e1ed5e" style="font-size:6.75px; font-family:Arial;" text-anchor="middle"><textPath startOffset="21.466115282336833" xlink:href="#id78">June</textPath></text><line stroke="#e1ed5e" stroke-width="0.3" x1="102.19456741930631" x2="102.32365962044197" y1="184.97166512339345" y2="189.96999836594603" /><path d="M 102.22038585953345 185.97133177190398 a86.0,86.0 0 0,1 -42.740103519485714,-10.115201625700543" fill="none" id="id79" stroke="none" /><text fill="#e1ed5e" style="font-size:6.75px; font-family:Arial;" text-anchor="middle"><textPath startOffset="22.20632615414155" xlink:href="#id79">July</textPath></text><line stroke="#e1ed5e" stroke-width="0.3" x1="58.666819895761336" x2="56.23545636021788" y1="174.27360380694188" y2="178.64263932499728" /><path d="M 58.180547188652646 175.14741091055294 a86.0,86.0 0 0,1 -31.652253787137756,-30.449443065178592" fill="none" id="id80" stroke="none" /><text fill="#e1ed5e" style="font-size:6.75px; font-family:Arial;" text-anchor="middle"><textPath startOffset="22.20632615414155" xlink:href="#id80">August</textPath></text><path d="M 83.72743513129214 113.27417163493432 l -11.864107992017043 9.678019848258606 a36.310817307692304,36.310817307692304 0 0,0 -0.3909154948532176,-0.487727185834514 l 12.028941398925122 -9.472364828845832" fill="#ff0100" stroke="none" /><path d="M 83.28015986056508 112.70617746262583 l -12.154037639820004 9.23641361706263 a36.26538461538462,36.26538461538462 0 0,0 -0.3734276586688724,-0.5002673734627721 l 12.311226565183961 -9.02583336409055" fill="#ff0000" stroke="none" /><line stroke="#e1ed5e" stroke-width="0.3" x1="26.63291911575756" x2="22.317208475507996" y1="142.92168965132927" y2="145.44649492493687" /><path d="M 25.769776987707644 143.4266507060508 a86.0,86.0 0 0,1 -11.730757126820373,-40.83630448921669" fill="none" id="id81" stroke="none" /><text fill="#e1ed5e" style="font-size:6.75px; font-family:Arial;" text-anchor="middle"><textPath startOffset="21.46611528233685" xlink:href="#id81">September</textPath></text><path d="M 81.69416730710424 110.29060199501025 l -22.402642846041417 12.59361893187432 a46.699759615384615,46.699759615384615 0 0,0 -0.38788284523173566,-0.704120032284073 l 22.616102100724667 -12.206128381192423" fill="#ffba11" stroke="none" /><line stroke="#e1ed5e" stroke-width="0.3" x1="15.007084014347285" x2="10.007500721073583" y1="101.09737516637583" y2="101.16192664675087" /><path d="M 14.007167355692545 101.11028546245083 a86.0,86.0 0 0,1 10.666146001902534,-42.60595125391555" fill="none" id="id82" stroke="none" /><text fill="#e1ed5e" style="font-size:6.75px; font-family:Arial;" text-anchor="middle"><textPath startOffset="22.20632615414155" xlink:href="#id82">October</textPath></text><path d="M 80.14247586403 93.16781622104843 l -47.686698586139485 -16.407095180703404 a71.43028846153845,71.43028846153845 0 0,0 0.4100333909954795,-1.1592196120344838 l 47.397212114334195 17.225512419164502" fill="#39ff87" stroke="none" /><path d="M 80.2630227832202 92.82701384747504 l -28.59489463594517 -10.392208543574021 a51.424759615384616,51.424759615384616 0 0,0 0.30951684060911533,-0.8293512507408892 l 28.41177320683443 10.882882931344252" fill="#f7ff18" stroke="none" /><path d="M 80.38941819471856 92.48833698450439 l -28.42591545332862 -10.888299996018887 a51.43990384615385,51.43990384615385 0 0,0 0.32384224199653067,-0.8241431827192719 l 28.234279661450397 11.375992183633922" fill="#f7ff18" stroke="none" /><path d="M 80.65960295795068 91.81776055985345 l -28.104014451727927 -11.889816686462945 a51.515625,51.515625 0 0,0 0.3525368524171738,-0.8137036609359987 l 27.895186889468075 12.371819491985542" fill="#f6ff19" stroke="none" /><path d="M 81.10775173730289 90.83032412892265 l -44.632936520621925 -21.663359245420214 a70.6125,70.6125 0 0,0 0.5401519564441495,-1.0889133836722418 l 44.253424551224356 22.428432217591418" fill="#37ff7b" stroke="none" /><path d="M 81.43458229118936 90.18545643968196 l -40.16556715848455 -21.23338751030346 a66.4326923076923,66.4326923076923 0 0,0 0.543140724587719,-1.0063572738809277 l 39.79411833467836 21.921625767516858" fill="#31ff3c" stroke="none" /><path d="M 81.6062741919709 89.86733742301443 l -40.842030117491554 -22.49889524606147 a67.62908653846154,67.62908653846154 0 0,0 0.5704750431743525,-1.0148114464912719 l 40.448697433024776 23.198590202487523" fill="#33ff4f" stroke="none" /><line stroke="#e1ed5e" stroke-width="0.3" x1="26.266209847984243" x2="21.928928074336255" y1="57.711370442889674" y2="55.22380399835377" /><path d="M 25.398753493254645 57.213857153982495 a86.0,86.0 0 0,1 29.58750427330803,-30.492523968695096" fill="none" id="id83" stroke="none" /><text fill="#e1ed5e" style="font-size:6.75px; font-family:Arial;" text-anchor="middle"><textPath startOffset="21.46611528233685" xlink:href="#id83">November</textPath></text><path d="M 81.96595687620814 89.24020034530311 l -39.21103847468688 -23.394804778060916 a66.65985576923077,66.65985576923077 0 0,0 0.5963968470265638,-0.9803196045193707 l 38.802525829374105 24.066292155787362" fill="#31ff40" stroke="none" /><path d="M 82.15384107792192 88.93136811851018 l -53.53847676623425 -33.20589564446946 a84.0,84.0 0 0,0 0.7726896150161493,-1.222209409143138 l 52.95895955497213 34.12255270132681" fill="#4dd2ff" stroke="none" /><path d="M 82.34701348167596 88.62581576622439 l -12.985129506267208 -8.36658744119071 a36.44711538461539,36.44711538461539 0 0,0 0.3443443011336096,-0.5244599947310684 l 12.839188569775677 8.588865499899445" fill="#ff0300" stroke="none" /><line stroke="#e1ed5e" stroke-width="0.3" x1="56.762969772571076" x2="54.21961505331055" y1="26.818313649435495" y2="22.513508569990535" /><path d="M 56.25429882871897 25.957352633546506 a86.0,86.0 0 0,1 42.265352541879196,-11.944610805530505" fill="none" id="id84" stroke="none" /><text fill="#e1ed5e" style="font-size:6.75px; font-family:Arial;" text-anchor="middle"><textPath startOffset="22.20632615414155" xlink:href="#id84">December</textPath></text></svg>