<?xml version="1.0" encoding="utf-8" ?>
<svg baseProfile="full" height="200mm" version="1.1" viewBox="0,0,200,200" width="200mm" xmlns="http://www.w3.org/2000/svg" xmlns:ev="http://www.w3.org/2001/xml-events" xmlns:xlink="http://www.w3.org/1999/xlink"><defs /><rect fill="#1a1a1a" height="200" width="200" x="0" y="0" /><text alignment-baseline="middle" fill="#e1ed5e" style="dominant-baseline: central; font-size:9.0px; font-family:Arial;" text-anchor="middle" x="100.0" y="100.0">2024</text><line stroke="#e1ed5e" stroke-width="0.3" x1="100.0" x2="100.0" y1="15.0" y2="10.0" /><path d="M 100.0 14.0 a86.0,86.0 0 0,1 42.35913384403234,11.155469271406648" fill="none" id="id61" stroke="none" /><text fill="#e1ed5e" style="font-size:6.75px; font-family:Arial;" text-anchor="middle"><textPath startOffset="22.145653131862478" xlink:href="#id61">January</textPath></text><path d="M 100.0 79.0 l 0.0 -4.016634495287839 a25.01663449528784,25.01663449528784 0 0,0 0.4294437970990984,0.0036862585053836568 l -0.06895087225024366 4.01604263497689" fill="#ff0300" stroke="none" /><path d="M 104.29559338865022 79.4440306129975 l 2.931607137786094 -14.028801408036632 a35.33183831043488,35.33183831043488 0 0,0 0.5926286353748133,0.12916065278796665 l -3.1719981897800413 13.976409297114946" fill="#ff990e" stroke="none" /><path d="M 104.64783097203109 79.52079915486377 l 4.361002752058459 -19.215382784578544 a40.704042239127965,40.704042239127965 0 0,0 0.680082839739218,0.16049769840888767 l -4.690217745537562 19.13768894252343" fill="#ffe115" stroke="none" /><line stroke="#e1ed5e" stroke-width="0.3" x1="143.13028292997686" x2="145.6673583964461" y1="26.7553504044142" y2="22.446841604673864" /><path d="M 143.63769802327073 25.89364864446614 a86.0,86.0 0 0,1 29.32050498858742,28.57503671076993" fill="none" id="id62" stroke="none" /><text fill="#e1ed5e" style="font-size:6.75px; font-family:Arial;" text-anchor="middle"><textPath startOffset="20.669276256404974" xlink:href="#id62">February</textPath></text><path d="M 115.8921839302757 86.27271002978787 l 4.081766782137353 -3.525732929785379 a26.393664130805043,26.393664130805043 0 0,0 0.2932278728897213,0.34542169695309516 l -4.141689218534187 3.455144450382732" fill="#ff1802" stroke="none" /><path d="M 116.35404254752997 86.82634096563983 l 5.590308287650616 -4.5031566393711016 a28.178437606449414,28.178437606449414 0 0,0 0.3002124964111925,0.379308682047041 l -5.666787214703367 4.406528013409383" fill="#ff3304" stroke="none" /><path d="M 116.7966241395341 87.39550010848427 l 28.662208002837325 -21.5086552310258 a56.834960826615195,56.834960826615195 0 0,0 0.5788992065640651,0.7853879545159226 l -29.027209228985217 21.013460967241" fill="#5dff2a" stroke="none" /><path d="M 117.01052211995028 87.68569379921539 l 19.477984593918315 -14.100558746657475 a45.046156466447144,45.046156466447144 0 0,0 0.4480696169094185,0.630266029478529 l -19.717169309357693 13.764115490469441" fill="#e5ff1a" stroke="none" /><path d="M 117.62189284568427 88.57770195909679 l 11.240034411335458 -7.285654507184493 a34.394742818212784,34.394742818212784 0 0,0 0.3168940112572216,0.49821002039258505 l -11.363446114218569 7.091630812113236" fill="#ff8c0c" stroke="none" /><line stroke="#e1ed5e" stroke-width="0.3" x1="172.87174338648825" x2="177.1583165268699" y1="56.24261187166439" y2="53.66864786411523" /><path d="M 173.72905801456457 55.72781907015455 a86.0,86.0 0 0,1 12.242430191666344,42.057860355516425" fill="none" id="id63" stroke="none" /><text fill="#e1ed5e" style="font-size:6.75px; font-family:Arial;" text-anchor="middle"><textPath startOffset="22.145653131862474" xlink:href="#id63">March</textPath></text><path d="M 118.00360718960297 89.18935116829356 l 24.199693642616104 -14.53122071871703 a49.227319177926645,49.227319177926645 0 0,0 0.4288081360702788,0.7282099614601483 l -24.44557548881615 14.113659588963326" fill="#b3ff20" stroke="none" /><path d="M 118.18653347947321 89.5 l 19.77142781869152 -11.415039173384807 a43.83007834676961,43.83007834676961 0 0,0 0.37060759632787293,0.6548281117773431 l -19.964468780040768 11.073954291508347" fill="#f5ff19" stroke="none" /><path d="M 119.31412917781788 91.75594674310238 l 8.793005670314612 -3.753211256220162 a30.560520040876575,30.560520040876575 0 0,0 0.20180734796163996,0.4842641697224779 l -8.856138862812735 3.601714577056406" fill="#ff5607" stroke="none" /><path d="M 119.4528033332814 92.08871423366111 l 16.602361332418486 -6.752035819539713 a38.922845463835586,38.922845463835586 0 0,0 0.24640260238338457,0.6210955200992808 l -16.715822609767994 6.466039282226866" fill="#ffca12" stroke="none" /><path d="M 120.35273937422433 94.82641323984039 l 17.370428693806875 -4.4154950474326915 a38.922845463835586,38.922845463835586 0 0,0 0.1590507449655184,0.6489813156591078 l -17.443666965288685 4.116657907165489" fill="#ffca12" stroke="none" /><path d="M 120.43855184770803 95.1765574152323 l 5.051039865622406 -1.1920316550183843 a26.189792210741455,26.189792210741455 0 0,0 0.09950766459422858,0.4384491305984677 l -5.070758391774301 1.1051481904808904" fill="#ff1502" stroke="none" /><path d="M 120.51834098615036 95.52812308129327 l 28.82049928115966 -6.281293678081257 a50.49704780288407,50.49704780288407 0 0,0 0.17732228102838332,0.8485513061091572 l -28.92407927301241 5.785625920686695" fill="#a4ff21" stroke="none" /><path d="M 120.65975698304385 96.23510406497455 l 22.790946856905016 -4.15326972371293 a44.166288179856934,44.166288179856934 0 0,0 0.12952328182128872,0.747055870072479 l -22.85888495621854 3.7614208207198585" fill="#f0ff19" stroke="none" /><path d="M 120.9064616781168 98.02013634271609 l 9.069278623963351 -0.8588701149827633 a30.10985579652549,30.10985579652549 0 0,0 0.044313645893525384,0.514991736603137 l -9.082685892554618 0.7030573310039643" fill="#ff4f07" stroke="none" /><path d="M 120.96210409425399 98.7389718711861 l 35.895252849488415 -2.15936927564921 a56.960145338934936,56.960145338934936 0 0,0 0.05033760770539253,0.9765361416846439 l -35.92703204665038 1.5428613405878358" fill="#5cff2a" stroke="none" /><line stroke="#e1ed5e" stroke-width="0.3" x1="184.99686870605535" x2="189.99668451229388" y1="99.2704041080226" y2="99.22748670261217" /><path d="M 185.99683186730306 99.26182062694052 a86.0,86.0 0 0,1 -10.086455211305974,41.156179273409016" fill="none" id="id64" stroke="none" /><text fill="#e1ed5e" style="font-size:6.75px; font-family:Arial;" text-anchor="middle"><textPath startOffset="21.40746469413373" xlink:href="#id64">April</textPath></text><path d="M 120.99922638620191 100.18025310272382 l 18.12604961824763 0.15559033574503486 a39.12671738389917,39.12671738389917 0 0,0 -0.01153039842142056,0.6715879023349055 l -18.12070778822754 -0.4667251540490115" fill="#ffcd13" stroke="none" /><path d="M 120.9064616781168 101.97986365728391 l 20.328430178330102 1.9251234732770277 a41.41938230952651,41.41938230952651 0 0,0 -0.07311035271911202,0.7072763421919314 l -20.292387433129324 -2.2738043377518906" fill="#ffeb16" stroke="none" /><path d="M 120.86939407059847 102.33845913500097 l 5.3139112300802855 0.5954348370886455 a26.347167026229137,26.347167026229137 0 0,0 -0.05422236151627642,0.44903893684964197 l -5.302906782304345 -0.686567450861696" fill="#ff1702" stroke="none" /><path d="M 120.51834098615036 104.47187691870673 l 3.725312505604003 0.8119145217454362 a24.812762575224255,24.812762575224255 0 0,0 -0.09427566420244665,0.41539597150341656 l -3.710825979843892 -0.8757448271878697" fill="#ff0000" stroke="none" /><path d="M 120.43855184770803 104.8234425847677 l 13.979997312432515 3.2992413001749368 a35.36402861360281,35.36402861360281 0 0,0 -0.14450832227055932,0.589643268449787 l -13.921301463645658 -3.5387403932328234" fill="#ff9a0e" stroke="none" /><path d="M 120.35273937422433 105.17358676015961 l 61.05821812267298 15.520760280478825 a84.0,84.0 0 0,0 -0.3672420767810789,1.394477982508787 l -60.78278656508717 -16.566618767360417" fill="#4dd2ff" stroke="none" /><path d="M 119.31412917781788 108.2440532568976 l 16.49058639180215 7.038850739779897 a38.92999886453957,38.92999886453957 0 0,0 -0.2676272766265482,0.6123835832638437 l -16.36732523315864 -7.320896392819585" fill="#ffca12" stroke="none" /><path d="M 118.5362547648365 109.86951160357373 l 20.303165844100743 10.81029223161961 a44.001759963665265,44.001759963665265 0 0,0 -0.3607194096597414,0.6636830851000803 l -20.11460108482566 -11.157230150194293" fill="#f2ff19" stroke="none" /><line stroke="#e1ed5e" stroke-width="0.3" x1="174.33088141563837" x2="178.70328620479359" y1="141.23008692659167" y2="143.65538615756765" /><path d="M 175.20536237346943 141.71514677278685 a86.0,86.0 0 0,1 -30.301960400862466,31.631185727798858" fill="none" id="id65" stroke="none" /><text fill="#e1ed5e" style="font-size:6.75px; font-family:Arial;" text-anchor="middle"><textPath startOffset="22.145653131862474" xlink:href="#id65">May</textPath></text><path d="M 117.01052211995028 112.31430620078461 l 20.518085214060616 14.853511385367877 a46.330191892812536,46.330191892812536 0 0,0 -0.471901641817443,0.6402252084598289 l -20.260081552659344 -15.203542903096583" fill="#d6ff1c" stroke="none" /><path d="M 116.79662413953412 112.60449989151573 l 15.780091760021026 11.841675042852405 a40.72907914159191,40.72907914159191 0 0,0 -0.4244513540151159,0.5556204474772992 l -15.574488428651605 -12.110816403570581" fill="#ffe215" stroke="none" /><path d="M 116.1254893667686 113.45245675266167 l 5.514928349347907 4.600749374249683 a28.182014306801406,28.182014306801406 0 0,0 -0.31309605471890695,0.3688263651900408 l -5.435137731121886 -4.694742521889281" fill="#ff3304" stroke="none" /><path d="M 115.6541949942343 113.99807769240083 l 28.26446936537036 25.274262793881203 a58.91660043147496,58.91660043147496 0 0,0 -0.6806334630121962,0.7481354052836684 l -27.826438201516282 -25.75573577472254" fill="#47ff2c" stroke="none" /><line stroke="#e1ed5e" stroke-width="0.3" x1="143.1302829299769" x2="145.66735839644613" y1="173.24464959558577" y2="177.55315839532614" /><path d="M 143.63769802327073 174.10635135553383 a86.0,86.0 0 0,1 -40.68552437913181,11.842963189579606" fill="none" id="id66" stroke="none" /><text fill="#e1ed5e" style="font-size:6.75px; font-family:Arial;" text-anchor="middle"><textPath startOffset="21.407464694133747" xlink:href="#id66">June</textPath></text><line stroke="#e1ed5e" stroke-width="0.3" x1="101.45913802915013" x2="101.54496967792366" y1="184.9874750549273" y2="189.98673829345242" /><path d="M 101.47630435890484 185.9873277026323 a86.0,86.0 0 0,1 -42.54439059252881,-10.42667462771756" fill="none" id="id67" stroke="none" /><text fill="#e1ed5e" style="font-size:6.75px; font-family:Arial;" text-anchor="middle"><textPath startOffset="22.145653131862474" xlink:href="#id67">July</textPath></text><line stroke="#e1ed5e" stroke-width="0.3" x1="58.13341422392154" x2="55.67067388415222" y1="173.97424548756322" y2="178.32567169271397" /><path d="M 57.64086615596768 174.84453072859336 a86.0,86.0 0 0,1 -31.369924170532247,-30.572349798747897" fill="none" id="id68" stroke="none" /><text fill="#e1ed5e" style="font-size:6.75px; font-family:Arial;" text-anchor="middle"><textPath startOffset="22.145653131862474" xlink:href="#id68">August</textPath></text><line stroke="#e1ed5e" stroke-width="0.3" x1="26.387840678322732" x2="22.057713659400548" y1="142.50000000000003" y2="145.00000000000006" /><path d="M 25.521815274538298 143.00000000000003 a86.0,86.0 0 0,1 -11.493303480769221,-40.785679425670985" fill="none" id="id69" stroke="none" /><text fill="#e1ed5e" style="font-size:6.75px; font-family:Arial;" text-anchor="middle"><textPath startOffset="21.40746469413373" xlink:href="#id69">September</textPath></text><line stroke="#e1ed5e" stroke-width="0.3" x1="15.003131293944662" x2="10.003315487706104" y1="100.72959589197737" y2="100.7725132973878" /><path d="M 14.003168132696942 100.73817937305945 a86.0,86.0 0 0,1 10.791469493833604,-42.45332614584628" fill="none" id="id70" stroke="none" /><text fill="#e1ed5e" style="font-size:6.75px; font-family:Arial;" text-anchor="middle"><textPath startOffset="22.145653131862435" xlink:href="#id70">October</textPath></text><line stroke="#e1ed5e" stroke-width="0.3" x1="26.387840678322718" x2="22.05771365940052" y1="57.49999999999999" y2="54.99999999999999" /><path d="M 25.521815274538284 56.99999999999999 a86.0,86.0 0 0,1 29.574782752854787,-30.34633250058573" fill="none" id="id71" stroke="none" /><text fill="#e1ed5e" style="font-size:6.75px; font-family:Arial;" text-anchor="middle"><textPath startOffset="21.40746469413373" xlink:href="#id71">November</textPath></text><line stroke="#e1ed5e" stroke-width="0.3" x1="56.869717070023135" x2="54.33264160355391" y1="26.7553504044142" y2="22.446841604673864" /><path d="M 56.362301976729285 25.89364864446614 a86.0,86.0 0 0,1 42.16139366436587,-11.88097634709845" fill="none" id="id72" stroke="none" /><text fill="#e1ed5e" style="font-size:6.75px; font-family:Arial;" text-anchor="middle"><textPath startOffset="22.145653131862474" xlink:href="#id72">December</textPath></text></svg>