<?xml version="1.0" encoding="utf-8" ?>
<svg baseProfile="full" height="200mm" version="1.1" viewBox="0,0,200,200" width="200mm" xmlns="http://www.w3.org/2000/svg" xmlns:ev="http://www.w3.org/2001/xml-events" xmlns:xlink="http://www.w3.org/1999/xlink"><defs /><rect fill="#1a1a1a" height="200" width="200" x="0" y="0" /><text alignment-baseline="middle" fill="#e1ed5e" style="dominant-baseline: central; font-size:9.0px; font-family:Arial;" text-anchor="middle" x="100.0" y="100.0">2026</text><line stroke="#e1ed5e" stroke-width="0.3" x1="100.0" x2="100.0" y1="15.0" y2="10.0" /><path d="M 100.0 14.0 a86.0,86.0 0 0,1 42.46469731375804,11.215312516191453" fill="none" id="id85" stroke="none" /><text fill="#e1ed5e" style="font-size:6.75px; font-family:Arial;" text-anchor="middle"><textPath startOffset="22.20632615414155" xlink:href="#id85">January</textPath></text><line stroke="#e1ed5e" stroke-width="0.3" x1="143.23703022742887" x2="145.7803849466894" y1="26.81831364943548" y2="22.513508569990506" /><path d="M 143.74570117128098 25.957352633546492 a86.0,86.0 0 0,1 28.547481713284135,27.462654790039103" fill="none" id="id86" stroke="none" /><text fill="#e1ed5e" style="font-size:6.75px; font-family:Arial;" text-anchor="middle"><textPath startOffset="19.985693538727396" xlink:href="#id86">February</textPath></text><line stroke="#e1ed5e" stroke-width="0.3" x1="172.23445277983987" x2="176.4835382374775" y1="55.19839476539836" y2="52.563006222186495" /><path d="M 173.08426987136738 54.67131705675599 a86.0,86.0 0 0,1 12.851231095245387,41.99856678651699" fill="none" id="id87" stroke="none" /><text fill="#e1ed5e" style="font-size:6.75px; font-family:Arial;" text-anchor="middle"><textPath startOffset="22.20632615414155" xlink:href="#id87">March</textPath></text><path d="M 120.08093135843002 93.85539295169968 l 4.643867137000895 -1.4209868173971405 a25.856408706166867,25.856408706166867 0 0,0 0.1265660160411235,0.42671768675374355 l -4.667639050153721 1.3408397438968669" fill="#ff0100" stroke="none" /><path d="M 120.91429891909075 98.10471618934814 l 4.836589683526127 -0.4382987047003253 a25.856408706166867,25.856408706166867 0 0,0 0.03635351493446127,0.44360496227713353 l -4.843417682280083 0.354979825215423" fill="#ff0100" stroke="none" /><line stroke="#e1ed5e" stroke-width="0.3" x1="184.98032266829074" x2="189.97916517819016" y1="98.17113171792111" y2="98.06355123074" /><path d="M 185.9800911702706 98.14961562048488 a86.0,86.0 0 0,1 -9.607161424134198,41.387399972396054" fill="none" id="id88" stroke="none" /><text fill="#e1ed5e" style="font-size:6.75px; font-family:Arial;" text-anchor="middle"><textPath startOffset="21.466115282336823" xlink:href="#id88">April</textPath></text><path d="M 120.99824983174949 100.27111621757518 l 4.827439237317259 0.062328864409289114 a25.827841596130593,25.827841596130593 0 0,0 -0.009566063472202893,0.44449738042863296 l -4.825651111160049 -0.14541606062803691" fill="#ff0000" stroke="none" /><path d="M 120.64145759157962 103.86396538481128 l 4.740733798428846 0.8874388455593625 a25.823080411124547,25.823080411124547 0 0,0 -0.08554825880841666,0.4362087286031944 l -4.724755606644766 -0.9689113012305017" fill="#ff0000" stroke="none" /><path d="M 120.5718875245553 104.21870165774334 l 5.097885368275152 1.0454294691460402 a26.203975211608224,26.203975211608224 0 0,0 -0.09441661779177149,0.4410830054126083 l -5.079134711758938 -1.1330262939748175" fill="#ff0601" stroke="none" /><path d="M 120.23288151984713 105.62410040840565 l 9.050666997882036 2.515798845023661 a30.393818016928655,30.393818016928655 0 0,0 -0.1444536586301625,0.5028621362312387 l -9.006020702365774 -2.6712184567594814" fill="#ff4606" stroke="none" /><path d="M 118.97047184881838 109.00673069616215 l 8.718216393036922 4.139202642333892 a30.65092200725514,30.65092200725514 0 0,0 -0.23038801050483848,0.4746675403145885 l -8.645675125917368 -4.288659138613756" fill="#ff4906" stroke="none" /><line stroke="#e1ed5e" stroke-width="0.3" x1="174.80103733775053" x2="179.2010983576182" y1="140.37084112569926" y2="142.7455964860345" /><path d="M 175.68104954172406 140.8457921977663 a86.0,86.0 0 0,1 -30.038265399797805,32.042727171017184" fill="none" id="id89" stroke="none" /><text fill="#e1ed5e" style="font-size:6.75px; font-family:Arial;" text-anchor="middle"><textPath startOffset="22.206326154141568" xlink:href="#id89">May</textPath></text><path d="M 116.498646956653 112.99209946851258 l 17.558490511153835 13.826688687696043 a43.34900241837968,43.34900241837968 0 0,0 -0.466687284623165,0.5822641440178107 l -17.317885314475816 -14.126880665292104" fill="#fffa17" stroke="none" /><path d="M 116.27256486870786 113.27417163493432 l 11.116060599172485 9.067808147534112 a35.34545042321645,35.34545042321645 0 0,0 -0.38863837563262515,0.4681399594029034 l -10.958326223646317 -9.257809364050786" fill="#ff8e0d" stroke="none" /><path d="M 115.56566222782051 114.09645910891815 l 6.574704216391239 5.95413467047639 a29.870087666263604,29.870087666263604 0 0,0 -0.3484183460635215,0.37813930119287165 l -6.471239462331995 -6.066425226470597" fill="#ff3e05" stroke="none" /><path d="M 114.55890576462653 115.13401014063108 l 43.67671729387959 45.40203042189324 a84.0,84.0 0 0,0 -1.0506566624367695,0.9934614530163142 l -42.88872479705202 -46.14712651165547" fill="#4dd2ff" stroke="none" /><path d="M 112.63410532772338 116.77436683061366 l 5.723158051267676 7.598666473904042 a30.512847642079805,30.512847642079805 0 0,0 -0.42226152952937446,0.31237898469839787 l -5.591511551319737 -7.696055407342209" fill="#ff4706" stroke="none" /><path d="M 111.7513745106137 117.40417183066458 l 8.560421622415772 12.678265740309543 a36.29768742442563,36.29768742442563 0 0,0 -0.5208291237241747,0.34517714326031257 l -8.340917799951633 -12.823740904661173" fill="#ff9b0e" stroke="none" /><line stroke="#e1ed5e" stroke-width="0.3" x1="143.8653032363475" x2="146.44561519142675" y1="172.8068346515853" y2="177.08958963109032" /><path d="M 144.38136562736335 173.6633856474863 a86.0,86.0 0 0,1 -40.68145358897372,12.25698825130547" fill="none" id="id90" stroke="none" /><text fill="#e1ed5e" style="font-size:6.75px; font-family:Arial;" text-anchor="middle"><textPath startOffset="21.466115282336833" xlink:href="#id90">June</textPath></text><path d="M 110.8373102113329 117.98757091392108 l 4.950993064352135 8.217568483574132 a30.59378778718259,30.59378778718259 0 0,0 -0.45341760506241524,0.2678871132023421 l -4.808807588261337 -8.301574169070223" fill="#ff4906" stroke="none" /><path d="M 110.5260780823613 118.17145234162733 l 6.002060091551989 10.361518131618663 a32.97438029020556,32.97438029020556 0 0,0 -0.49359700496359177,0.2802772615088425 l -5.822814319667199 -10.463298558922133" fill="#ff6c09" stroke="none" /><path d="M 109.57404056367764 118.69057910512821 l 6.666084923908861 13.013626458248655 a35.62159915356711,35.62159915356711 0 0,0 -0.5481419318364904,0.2748497438626598 l -6.441089084389611 -13.126444043020618" fill="#ff920d" stroke="none" /><path d="M 108.92500713936063 119.00905698771935 l 10.236913040664772 21.803238958782995 a45.08683494558646,45.08683494558646 0 0,0 -0.7053556309131939,0.3237941746432347 l -9.86008941398416 -21.976220203760302" fill="#edff19" stroke="none" /><path d="M 108.2653958097858 119.30500536409082 l 2.6947489059413505 6.293968647270844 a27.846584038694076,27.846584038694076 0 0,0 -0.44226812059080617,0.18486811027596362 l -2.5860093258530834 -6.339421800566781" fill="#ff1f03" stroke="none" /><path d="M 107.59598834532513 119.57807347666477 l 11.648866044689957 30.024052825610763 a53.2046553808948,53.2046553808948 0 0,0 -0.8566703989746484,0.32391944252005034 l -11.130325424955034 -30.220120518237447" fill="#8bff24" stroke="none" /><path d="M 106.57524785965236 119.94407469862006 l 1.7874218977606984 5.421617041334369 a26.708660822249094,26.708660822249094 0 0,0 -0.43786770582410556,0.14019141199847326 l -1.6938328468456525 -5.451581299992549" fill="#ff0e01" stroke="none" /><path d="M 106.2309692047433 120.05430185196036 l 7.200555479876805 23.174903991711442 a45.267759975816205,45.267759975816205 0 0,0 -0.7461097418410572,0.2247967447851715 l -6.800570763595503 -23.295416105602342" fill="#ebff1a" stroke="none" /><line stroke="#e1ed5e" stroke-width="0.3" x1="102.19456741930631" x2="102.32365962044197" y1="184.97166512339345" y2="189.96999836594603" /><path d="M 102.22038585953345 185.97133177190398 a86.0,86.0 0 0,1 -42.740103519485714,-10.115201625700543" fill="none" id="id91" stroke="none" /><text fill="#e1ed5e" style="font-size:6.75px; font-family:Arial;" text-anchor="middle"><textPath startOffset="22.20632615414155" xlink:href="#id91">July</textPath></text><line stroke="#e1ed5e" stroke-width="0.3" x1="58.666819895761336" x2="56.23545636021788" y1="174.27360380694188" y2="178.64263932499728" /><path d="M 58.180547188652646 175.14741091055294 a86.0,86.0 0 0,1 -31.652253787137756,-30.449443065178592" fill="none" id="id92" stroke="none" /><text fill="#e1ed5e" style="font-size:6.75px; font-family:Arial;" text-anchor="middle"><textPath startOffset="22.20632615414155" xlink:href="#id92">August</textPath></text><line stroke="#e1ed5e" stroke-width="0.3" x1="26.63291911575756" x2="22.317208475507996" y1="142.92168965132927" y2="145.44649492493687" /><path d="M 25.769776987707644 143.4266507060508 a86.0,86.0 0 0,1 -11.730757126820373,-40.83630448921669" fill="none" id="id93" stroke="none" /><text fill="#e1ed5e" style="font-size:6.75px; font-family:Arial;" text-anchor="middle"><textPath startOffset="21.46611528233685" xlink:href="#id93">September</textPath></text><line stroke="#e1ed5e" stroke-width="0.3" x1="15.007084014347285" x2="10.007500721073583" y1="101.09737516637583" y2="101.16192664675087" /><path d="M 14.007167355692545 101.11028546245083 a86.0,86.0 0 0,1 10.666146001902534,-42.60595125391555" fill="none" id="id94" stroke="none" /><text fill="#e1ed5e" style="font-size:6.75px; font-family:Arial;" text-anchor="middle"><textPath startOffset="22.20632615414155" xlink:href="#id94">October</textPath></text><line stroke="#e1ed5e" stroke-width="0.3" x1="26.266209847984243" x2="21.928928074336255" y1="57.711370442889674" y2="55.22380399835377" /><path d="M 25.398753493254645 57.213857153982495 a86.0,86.0 0 0,1 29.58750427330803,-30.492523968695096" fill="none" id="id95" stroke="none" /><text fill="#e1ed5e" style="font-size:6.75px; font-family:Arial;" text-anchor="middle"><textPath startOffset="21.46611528233685" xlink:href="#id95">November</textPath></text><line stroke="#e1ed5e" stroke-width="0.3" x1="56.762969772571076" x2="54.21961505331055" y1="26.818313649435495" y2="22.513508569990535" /><path d="M 56.25429882871897 25.957352633546506 a86.0,86.0 0 0,1 42.265352541879196,-11.944610805530505" fill="none" id="id96" stroke="none" /><text fill="#e1ed5e" style="font-size:6.75px; font-family:Arial;" text-anchor="middle"><textPath startOffset="22.20632615414155" xlink:href="#id96">December</textPath></text></svg>